<svg xmlns="http://www.w3.org/2000/svg" viewBox="0 0 100 100">
  <defs>
    <linearGradient id="bgGradient" x1="0%" y1="0%" x2="100%" y2="100%">
      <stop offset="0%" style="stop-color:#10b981;stop-opacity:1" />
      <stop offset="100%" style="stop-color:#059669;stop-opacity:1" />
    </linearGradient>
  </defs>

  <!-- Background with rounded corners -->
  <rect width="100" height="100" rx="20" fill="url(#bgGradient)"/>

  <!-- Bar chart icon (centered, white) -->
  <path fill="white" stroke="white" stroke-width="2" stroke-linecap="round" stroke-linejoin="round"
        d="M 37.5 79 v -25 a 4 4 0 0 0 -4 -4 h -4 a 4 4 0 0 0 -4 4 v 25 a 4 4 0 0 0 4 4 h 4 a 4 4 0 0 0 4 -4 z
           M 37.5 79 V 37.5 a 4 4 0 0 1 4 -4 h 4 a 4 4 0 0 1 4 4 v 41.67
           M 37.5 79 a 4 4 0 0 0 4 4 h 4 a 4 4 0 0 0 4 -4
           M 49.5 79 V 20.83 a 4 4 0 0 1 4 -4 h 4 a 4 4 0 0 1 4 4 v 58.33 a 4 4 0 0 1 -4 4 h -4 a 4 4 0 0 1 -4 -4 z"/>
</svg>
